<?xml version="1.0" encoding="utf-8"?>
<!-- Generator: Adobe Illustrator 28.1.0, SVG Export Plug-In . SVG Version: 6.00 Build 0)  -->
<svg version="1.1" id="Layer_1" xmlns="http://www.w3.org/2000/svg" xmlns:xlink="http://www.w3.org/1999/xlink" x="0px" y="0px"
	 width="8px" height="8px" viewBox="0 0 8 8" style="enable-background:new 0 0 8 8;" xml:space="preserve">
<path d="M2,0C1.2,0,0.5,0.7,0.5,1.5v4c0,0.8,0.6,1.4,1.3,1.5L1,7.7C0.9,7.8,1,8,1.2,8h0.6c0.1,0,0.3-0.1,0.4-0.1L3,7h2l0.9,0.9
	C5.9,7.9,6.1,8,6.2,8h0.6C7,8,7.1,7.8,7,7.7L6.2,7C7,6.9,7.5,6.2,7.5,5.5v-4C7.5,0.7,6.8,0,6,0H2z M1.5,1.5C1.5,1.2,1.7,1,2,1h4
	c0.3,0,0.5,0.2,0.5,0.5V3c0,0.3-0.2,0.5-0.5,0.5H2C1.7,3.5,1.5,3.3,1.5,3V1.5z M4,4.5c0.4,0,0.8,0.3,0.8,0.8S4.4,6,4,6
	S3.3,5.7,3.3,5.2S3.6,4.5,4,4.5z"/>
</svg>
